<?xml version="1.0" encoding="UTF-8" standalone="no"?>
<svg
   xmlns:dc="http://purl.org/dc/elements/1.1/"
   xmlns:cc="http://creativecommons.org/ns#"
   xmlns:rdf="http://www.w3.org/1999/02/22-rdf-syntax-ns#"
   xmlns:svg="http://www.w3.org/2000/svg"
   xmlns="http://www.w3.org/2000/svg"
   xmlns:sodipodi="http://sodipodi.sourceforge.net/DTD/sodipodi-0.dtd"
   xmlns:inkscape="http://www.inkscape.org/namespaces/inkscape"
   version="1.1"
   width="1265.8538"
   height="886.8634"
   id="svg29"
   viewBox="0 0 1265.8538 886.8634"
   sodipodi:docname="WINHACKS.svg"
   inkscape:version="1.0.2-2 (e86c870879, 2021-01-15)">
  <metadata
     id="metadata35">
    <rdf:RDF>
      <cc:Work
         rdf:about="">
        <dc:format>image/svg+xml</dc:format>
        <dc:type
           rdf:resource="http://purl.org/dc/dcmitype/StillImage" />
        <dc:title></dc:title>
      </cc:Work>
    </rdf:RDF>
  </metadata>
  <defs
     id="defs33" />
  <sodipodi:namedview
     pagecolor="#ffffff"
     bordercolor="#666666"
     borderopacity="1"
     objecttolerance="10"
     gridtolerance="10"
     guidetolerance="10"
     inkscape:pageopacity="0"
     inkscape:pageshadow="2"
     inkscape:window-width="2400"
     inkscape:window-height="1321"
     id="namedview31"
     showgrid="false"
     inkscape:zoom="0.66279378"
     inkscape:cx="632.92688"
     inkscape:cy="443.4317"
     inkscape:window-x="-9"
     inkscape:window-y="-9"
     inkscape:window-maximized="1"
     inkscape:current-layer="svg29" />
  <g
     id="Layer1000">
    <path
       d="m 896.3255,543.383 c 0,-4.0819 -0.555,-7.9316 -1.6429,-11.4211 -0.0582,-0.1891 -0.1199,-0.3733 -0.1891,-0.561 -1.7788,-4.8469 -5.2294,-8.786 -9.9791,-11.391 -3.3092,-1.8153 -7.164,-3.1969 -11.4588,-4.1071 -3.9758,-0.8419 -7.9585,-1.2691 -11.8355,-1.2691 -7.2005,0 -13.1524,0.9054 -18.0618,2.759 -1.6511,-0.9037 -3.518,-1.3978 -5.4311,-1.3978 h -11.0727 c 7.1197,-20.7998 10.9893,-43.107 10.9893,-66.3202 0,-113.0618 -91.6548,-204.7164 -204.7164,-204.7164 -113.0618,0 -204.7173,91.6546 -204.7173,204.7164 0,23.2132 3.8699,45.5204 10.9897,66.3202 h -21.5192 c -1.9973,0 -3.9056,0.5227 -5.571,1.4582 -1.6662,-0.9338 -3.5705,-1.4582 -5.5519,-1.4582 h -25.6504 c -5.0205,0 -9.5137,3.3656 -10.9259,8.1845 -1.3992,4.7789 0.5224,9.9867 4.6769,12.7156 0.1055,0.2464 0.2191,0.4842 0.3404,0.7195 0.2617,0.5034 0.7529,1.7183 1.1056,4.1899 0.0198,0.1363 0.0224,0.1573 11.4063,64.8187 0.0159,0.0938 0.034,0.189 0.0524,0.2843 0.003,0.1241 0.005,0.2843 0.005,0.4878 0,0.3286 0.0145,0.6557 0.0431,0.9879 l 0.004,0.0428 c -3.1567,2.9701 -4.3739,7.4934 -3.0302,11.7247 1.5088,4.7472 5.8694,7.9364 10.8501,7.9364 h 32.4604 c 0.8989,0 1.7955,-0.1077 2.6666,-0.3175 0.8722,0.2098 1.7685,0.3175 2.6674,0.3175 h 69.5273 c -0.3858,1.9474 -0.2659,4.0025 0.4187,5.9624 1.5953,4.5629 5.9147,7.6286 10.7478,7.6286 10.5256,0 18.809,-3.0733 24.6237,-9.1358 2.1252,-2.2187 3.3353,-3.2465 3.8753,-3.664 l 2.6946,-0.7912 h 25.6552 c -0.4725,2.1617 -0.3087,4.4615 0.5519,6.6294 1.7306,4.3662 5.8848,7.1887 10.5829,7.1887 3.9087,0 7.221,-0.5622 10.1387,-1.7232 2.4157,-0.9689 4.9371,-2.4177 8.039,-4.6347 l 3.746,-2.808 c 3.0827,-2.3729 4.7534,-3.2465 5.3351,-3.5149 0.7288,-0.3385 2.0891,-0.8164 4.4328,-1.1767 0.6358,-0.0986 1.2617,-0.2497 1.87,-0.453 1.0667,0.3257 2.1833,0.4924 3.3251,0.4924 h 16.7754 c -0.1494,2.3207 0.417,4.6823 1.7113,6.7567 2.0934,3.3559 5.7033,5.3586 9.6576,5.3586 0.6565,0 1.3147,-0.057 1.9503,-0.1681 6.758,-1.1738 13.3239,-3.958 19.5182,-8.2766 l 3.9747,-2.4443 2.5427,-1.5089 c 0.2265,-0.0731 0.4986,-0.1621 0.7863,-0.2557 1.1118,0.3558 2.2774,0.5383 3.4623,0.5383 h 46.7056 c 3.0297,0.6497 5.1398,0.9913 6.8476,1.1103 1.3828,0.0922 3.3744,0.1384 5.9188,0.1384 4.9045,0 9.1423,-0.4082 12.9246,-1.2487 h 47.4559 c 2.0061,0 3.9095,-0.5114 5.5684,-1.4389 1.6608,0.9261 3.5617,1.4389 5.5542,1.4389 h 30.9849 c 1.5628,0 3.0954,-0.3257 4.5108,-0.9419 1.292,0.3843 2.5903,0.7149 3.8809,0.985 3.822,0.8002 7.8333,1.2056 11.9231,1.2056 4.0405,0 8.0898,-0.4289 12.0325,-1.2756 4.286,-0.9182 7.8693,-2.1821 10.9584,-3.8659 4.1437,-2.2635 7.2624,-5.4431 9.2725,-9.4581 1.7597,-3.5291 2.6149,-8.1289 2.6149,-14.0595 v -15.3443 c 0,-4.7948 -0.3821,-10.9556 -2.874,-16.124 1.8187,-2.0599 2.874,-4.7506 2.874,-7.5521 z M 434.21,449.6741 v 0 c 0,-109.5735 89.1442,-198.7174 198.7174,-198.7174 109.5735,0 198.7175,89.1439 198.7175,198.7174 0,23.2464 -4.0153,45.5715 -11.3857,66.3208 h -5.9184 c 3.0163,-8.2239 5.4941,-16.7057 7.3783,-25.4069 0.9402,-4.3435 1.7345,-8.7401 2.3765,-13.1859 1.3082,-9.0581 1.9982,-18.3133 1.9982,-27.728 0,-106.5123 -86.654,-193.1666 -193.1664,-193.1666 -106.5127,0 -193.1666,86.6543 -193.1666,193.1666 0,9.4147 0.6905,18.6699 1.9984,27.728 0.642,4.4458 1.436,8.8424 2.3768,13.1859 1.931,8.9192 4.4816,17.6099 7.6014,26.0266 -0.646,0.2188 -1.277,0.4742 -1.87,0.8019 -1.2903,-0.7149 -2.7292,-1.1713 -4.2418,-1.3402 C 438.2366,495.304 434.21,472.9514 434.21,449.6741 Z m 16.8825,40.9139 v 0 h 29.939 v 25.4069 H 458.745 c -3.1258,-8.2086 -5.6997,-16.6898 -7.6525,-25.4069 z m 366.8984,-52.1087 v 0 c -1.3702,-0.4961 -2.728,-1.0245 -4.0804,-1.5633 -0.6781,-0.2699 -1.3539,-0.5434 -2.0288,-0.8187 -0.2769,-0.1128 -0.5556,-0.2225 -0.832,-0.3359 -3.1456,-1.2841 -6.2492,-2.6549 -9.3112,-4.1014 -0.6789,-0.3209 -1.3547,-0.6469 -2.0288,-0.9757 -0.7265,-0.3544 -1.4544,-0.7059 -2.1753,-1.0698 -2.2048,-1.1118 -4.3792,-2.2743 -6.5469,-3.437 l -1.421,-0.7946 -1.7983,-1.0051 -0.2304,-0.1364 -2.9379,-1.7422 c -2.0848,-1.292 -4.1692,-2.5798 -6.1818,-3.9682 -0.3472,-0.2285 -0.6811,-0.4742 -1.0235,-0.7084 -0.6795,-0.464 -1.3618,-0.9246 -2.0285,-1.4048 -0.9763,-0.7033 -1.9429,-1.4176 -2.9086,-2.1291 l -2.8976,-2.2122 c -0.955,-0.7489 -1.878,-1.5358 -2.8174,-2.3 -0.5193,-0.413 -1.0224,-0.8442 -1.5199,-1.2813 -0.411,-0.3608 -0.8184,-0.7254 -1.2254,-1.0893 -0.2656,-0.2407 -0.5346,-0.4774 -0.8034,-0.7144 -0.6358,-0.5621 -1.271,-1.1245 -1.8674,-1.7265 l -2.602,-2.4999 -2.4831,-2.6033 c -0.8464,-0.849 -1.6053,-1.7743 -2.391,-2.6728 -0.2642,-0.3096 -0.5321,-0.6154 -0.7997,-0.9219 -0.5167,-0.593 -1.029,-1.1882 -1.4967,-1.8187 l -0.532,-0.6803 -1.6643,-2.1282 -2.0517,-2.9016 c -0.7066,-0.9502 -1.3186,-1.9607 -1.94,-2.9633 -0.6035,-1.0126 -1.2926,-1.9732 -1.8272,-3.0223 l -1.6827,-3.0957 c -0.5573,-1.0318 -1.0031,-2.1184 -1.5117,-3.1717 l -0.7497,-1.5852 c -0.243,-0.5312 -0.4357,-1.0842 -0.6563,-1.6245 l -1.2883,-3.2536 -3.1139,-7.8622 -5.8073,6.4126 -1.1061,1.2208 -1.1157,1.1552 -2.4735,2.5452 c -1.6515,1.7864 -3.2933,3.1669 -4.921,4.6939 -1.5698,1.5349 -3.3627,2.9562 -5.0952,4.4067 -1.7039,1.4899 -3.5482,2.8032 -5.3595,4.1531 -0.599,0.4682 -1.2155,0.9119 -1.8374,1.347 -0.6197,0.4337 -1.2456,0.858 -1.876,1.2759 -0.6188,0.4098 -1.2393,0.8175 -1.8575,1.2274 -1.8491,1.2945 -3.8121,2.4111 -5.749,3.564 -0.8271,0.5193 -1.6784,0.9966 -2.5367,1.4601 -0.6735,0.3637 -1.3499,0.7206 -2.0285,1.0732 -0.4552,0.2364 -0.9105,0.4728 -1.3637,0.712 -1.9701,1.0951 -4.0527,1.9647 -6.0931,2.9138 -0.8909,0.3974 -1.7875,0.7806 -2.6867,1.1591 -0.6735,0.2829 -1.351,0.5547 -2.0287,0.8265 -2.5937,1.0404 -5.2161,2.0078 -7.873,2.8727 -0.7531,0.2474 -1.5122,0.4765 -2.2702,0.7075 -0.6744,0.2055 -1.3507,0.4051 -2.0288,0.5987 -2.8837,0.8232 -5.7954,1.5491 -8.7276,2.1781 -0.4702,0.1066 -0.9428,0.2021 -1.4156,0.2954 -0.6746,0.1327 -1.351,0.2577 -2.0288,0.3764 -1.0618,0.186 -2.1251,0.3651 -3.1835,0.5675 -2.2167,0.3702 -4.4572,0.5845 -6.6841,0.8893 -0.0916,0.01 -0.1837,0.0141 -0.2756,0.0229 -0.6752,0.0658 -1.3518,0.1174 -2.0284,0.1698 -1.4724,0.114 -2.9458,0.2169 -4.4176,0.3371 l -5.7259,0.144 -1.014,0.0255 -1.0148,-0.0261 -5.7254,-0.1471 c -1.4715,-0.1202 -2.9452,-0.2234 -4.4178,-0.3374 -0.6764,-0.0521 -1.3533,-0.104 -2.0285,-0.1695 -0.0915,-0.009 -0.1837,-0.0136 -0.2755,-0.0229 -2.2258,-0.3047 -4.4666,-0.519 -6.6833,-0.8893 -1.0584,-0.204 -2.1223,-0.3815 -3.1847,-0.5669 -0.6777,-0.1185 -1.3538,-0.244 -2.0282,-0.3784 -0.4728,-0.0944 -0.9442,-0.1913 -1.413,-0.3008 -2.9333,-0.6287 -5.8456,-1.3549 -8.7305,-2.1784 -0.678,-0.1936 -1.3544,-0.3926 -2.0287,-0.5984 -0.7572,-0.2307 -1.5146,-0.4592 -2.2672,-0.7061 -2.6572,-0.866 -5.2815,-1.8326 -7.876,-2.8743 -0.6778,-0.2724 -1.3556,-0.5448 -2.0288,-0.8286 -0.8969,-0.3778 -1.7918,-0.7617 -2.6801,-1.1599 -2.0401,-0.9488 -4.1228,-1.8185 -6.0928,-2.9132 -0.4553,-0.2404 -0.9128,-0.4776 -1.3706,-0.7152 -0.6786,-0.3529 -1.3555,-0.7098 -2.0285,-1.0735 -0.8557,-0.4623 -1.7044,-0.9379 -2.5293,-1.4553 -1.9358,-1.1545 -3.9016,-2.2654 -5.7464,-3.5668 -0.6214,-0.4127 -1.2453,-0.8229 -1.8675,-1.2353 l -1.8439,-1.2535 c -0.6293,-0.44 -1.2532,-0.8875 -1.8587,-1.3609 -1.811,-1.3493 -3.655,-2.6623 -5.3592,-4.1522 -1.7336,-1.4519 -3.5124,-2.8579 -5.1332,-4.4425 -1.6458,-1.5551 -3.3772,-3.0282 -4.9167,-4.6981 l -2.3771,-2.4395 -0.5953,-0.61 -0.2977,-0.305 -0.0742,-0.0763 c -0.023,-0.0246 0.0689,0.0828 0.0122,0.0176 l -0.0372,-0.0414 -0.1485,-0.1644 -1.1886,-1.3184 -5.7719,-6.4009 -3.1323,7.9132 -1.2875,3.2527 c -0.2205,0.5403 -0.4133,1.0934 -0.6559,1.6243 l -0.75,1.5848 c -0.5131,1.0506 -0.9553,2.1388 -1.5135,3.1697 l -1.6815,3.0955 c -0.534,1.0488 -1.2231,2.0097 -1.8263,3.022 -0.6214,1.0023 -1.2323,2.0129 -1.9389,2.9633 l -2.0503,2.901 -1.861,2.3766 -0.3367,0.43 c -0.527,0.7104 -1.1095,1.3768 -1.692,2.0446 -0.2019,0.2313 -0.404,0.4623 -0.6035,0.6962 -0.7855,0.8986 -1.5438,1.8238 -2.3899,2.6728 l -2.482,2.6033 -2.6028,2.4985 c -0.6582,0.665 -1.3632,1.2818 -2.065,1.9032 -0.2019,0.1788 -0.4043,0.3566 -0.6044,0.538 -0.4725,0.4229 -0.9456,0.8461 -1.4241,1.2631 -0.4329,0.3773 -0.8703,0.7498 -1.3207,1.1084 -0.9385,0.7639 -1.8615,1.5508 -2.8162,2.3003 l -2.8973,2.2118 c -1.0324,0.7583 -2.0659,1.5191 -3.1093,2.2683 -0.6676,0.4791 -1.3476,0.942 -2.0285,1.4046 -0.2758,0.1871 -0.5434,0.3858 -0.822,0.5692 -2.0118,1.3887 -4.0952,2.6773 -6.1804,3.9699 l -3.1408,1.8638 -0.0261,0.0156 -2.0027,1.1202 -1.216,0.6801 c -2.1671,1.1639 -4.343,2.3232 -6.5464,3.4373 -0.7891,0.3985 -1.5854,0.7846 -2.3811,1.1718 -0.6737,0.328 -1.3501,0.6514 -2.0284,0.9714 -2.9945,1.412 -6.0287,2.7522 -9.1035,4.0077 -0.3455,0.1417 -0.6936,0.2792 -1.0395,0.4203 -0.6755,0.275 -1.3507,0.55 -2.029,0.8195 -1.2835,0.5103 -2.5719,1.0097 -3.8718,1.4808 -0.3204,0.1157 -0.6429,0.2265 -0.9638,0.3413 5.6236,-97.8644 86.7552,-175.494 186.0287,-175.494 99.2744,0 180.4062,77.6313 186.0284,175.4972 -0.3211,-0.1148 -0.644,-0.2257 -0.9649,-0.3413 z m 1.0253,1.2894 v 0 c 0.1712,3.2809 0.2625,6.5827 0.2625,9.906 0,9.4229 -0.7067,18.6803 -2.0562,27.7274 h -3.312 v -38.8148 c 1.6965,0.4232 3.3984,0.8163 5.1057,1.1814 z m -7.1345,-1.7022 v 0 39.3356 H 801.7385 V 435.017 c 2.8675,0.9576 5.7518,1.8528 8.6553,2.6671 0.4952,0.1304 0.9918,0.254 1.4879,0.3824 z m -12.172,-3.7312 v 0 43.0668 h -10.1432 v -46.9579 c 2.1422,0.913 4.3002,1.7835 6.484,2.5806 1.2158,0.4502 2.4361,0.8861 3.6592,1.3105 z m -12.1719,-4.7741 v 0 47.8409 h -10.1432 v -52.7587 c 1.567,0.8257 3.1447,1.6279 4.7267,2.4145 l 3.4319,1.6251 z m -12.1717,-5.9998 v 0 53.8407 h -10.1435 v -59.9664 c 0.1026,0.0695 0.2032,0.1417 0.3064,0.2103 l 3.2205,2.0784 c 2.1863,1.3173 4.3656,2.6391 6.6106,3.8339 0.002,8e-4 0.004,0.002 0.006,0.003 z m -12.1723,-7.528 v 0 61.3687 h -10.1432 v -69.2612 l 0.2055,0.1874 2.9707,2.478 c 0.9786,0.8399 2.0262,1.5877 3.0439,2.3723 1.0219,0.7787 2.0395,1.5611 3.1017,2.2797 0.2749,0.1902 0.5479,0.3829 0.8214,0.5751 z m -12.1719,-9.7458 v 0 71.1145 H 738.228 V 392.069 c 0.5193,0.7299 1.0465,1.4536 1.6183,2.1413 l 2.4488,3.0634 2.6099,2.9132 c 0.8498,0.9884 1.7932,1.8842 2.702,2.8114 0.919,0.917 1.8127,1.8587 2.785,2.7139 z m -25.9801,-18.2959 v 0 89.4104 h -5.8967 v -84.1303 c 0.7739,-0.6458 1.5384,-1.3026 2.2748,-1.9928 1.2104,-1.0916 2.4279,-2.1623 3.6219,-3.2873 z m -7.9254,6.9369 v 0 82.4735 h -10.1435 v -74.9807 c 0.9592,-0.623 1.9074,-1.2619 2.8241,-1.9474 2.0112,-1.4422 4.0442,-2.8511 5.9406,-4.4416 0.4589,-0.369 0.9193,-0.7358 1.3788,-1.1038 z m -12.172,8.7857 v 0 73.6878 h -10.1432 v -67.8113 c 0.8028,-0.4116 1.6002,-0.8331 2.3791,-1.2906 2.1612,-1.2129 4.3512,-2.372 6.4191,-3.74 0.4479,-0.2832 0.8966,-0.5641 1.345,-0.8459 z m -12.1717,6.8899 v 0 66.7979 h -10.1435 v -62.2392 l 1.1291,-0.4723 c 2.281,-0.9745 4.6003,-1.8598 6.8037,-3.0047 0.735,-0.3648 1.4732,-0.7225 2.2107,-1.0817 z m -12.1722,5.3311 v 0 61.4668 h -10.1432 v -58.1012 c 2.1271,-0.6157 4.2414,-1.2747 6.3343,-1.9981 l 3.503,-1.2558 c 0.1021,-0.0374 0.2038,-0.0748 0.3059,-0.1117 z m -12.172,3.9345 v 0 57.5323 h -10.1432 v -55.175 l 0.5465,-0.1009 c 1.2189,-0.2313 2.446,-0.4255 3.6462,-0.7481 1.9948,-0.4603 3.977,-0.9689 5.9505,-1.5083 z m -12.172,2.7315 v 0 54.8008 h -10.1432 v -53.4286 c 0.5599,-0.0499 1.1211,-0.091 1.6801,-0.1505 2.4585,-0.343 4.93,-0.6007 7.3761,-1.0213 z m -12.1716,1.5542 v 0 53.2466 h -10.1435 v -52.7565 c 2.1444,-0.0589 4.2885,-0.108 6.4309,-0.1984 1.2368,-0.1043 2.475,-0.1945 3.7126,-0.2917 z m -12.1723,0.4913 v 0 52.7553 h -10.1432 v -53.2426 c 1.2379,0.0969 2.4761,0.1874 3.7128,0.2917 2.1419,0.089 4.2866,0.1408 6.4304,0.1956 z m -12.1717,-0.6696 v 0 53.4249 H 609.5974 V 422.605 l 1.0868,0.2004 c 2.4463,0.4204 4.9179,0.6786 7.3763,1.0213 0.5593,0.0595 1.1206,0.1003 1.6804,0.1505 z m -12.1717,-1.7467 v 0 55.1716 H 597.4257 V 419.88 c 1.9727,0.5397 3.9549,1.048 5.9483,1.5083 1.2018,0.3155 2.4293,0.5094 3.6481,0.7416 z m -12.1722,-2.9188 v 0 58.0904 h -10.1432 v -61.4566 c 0.1012,0.036 0.2018,0.0737 0.303,0.1109 l 3.503,1.2557 c 2.094,0.724 4.2089,1.383 6.3372,1.9996 z m -12.172,-4.1386 v 0 62.229 h -10.1435 v -66.7815 c 0.7353,0.3581 1.4715,0.7152 2.2048,1.0789 2.2022,1.1475 4.5272,2.0211 6.8066,2.9999 z m -12.172,-5.5661 v 0 67.7951 h -10.1432 v -73.6713 c 0.4459,0.28 0.8927,0.5598 1.3383,0.8413 2.0678,1.3683 4.2582,2.5276 6.419,3.7411 0.7813,0.4587 1.5809,0.8813 2.3859,1.2938 z m -12.1716,-7.1697 v 0 74.9648 h -10.1435 v -82.4514 c 0.4561,0.3651 0.9133,0.7297 1.3682,1.0956 1.8967,1.5908 3.9286,3.0013 5.9412,4.4422 0.9218,0.684 1.8725,1.3241 2.8341,1.9488 z m -12.1723,-9.1437 v 0 84.1085 h -5.8969 v -89.3886 c 1.1826,1.1143 2.4032,2.1889 3.6111,3.2785 0.7401,0.6934 1.5083,1.353 2.2858,2.0016 z m -19.0831,-1.192 v 0 85.3005 h -13.0034 v -70.8988 l 0.8524,-0.7787 c 0.9734,-0.8549 1.8672,-1.7968 2.7862,-2.7136 0.909,-0.9275 1.853,-1.8226 2.7031,-2.8111 l 2.6087,-2.9151 2.4497,-3.064 c 0.5667,-0.6806 1.0888,-1.3966 1.6033,-2.1192 z m -15.0321,16.2525 v 0 69.048 h -10.1432 v -61.2017 c 0.3466,-0.2438 0.693,-0.4876 1.042,-0.7288 1.0621,-0.7186 2.0803,-1.5007 3.1028,-2.2794 1.0176,-0.7843 2.0659,-1.5318 3.0441,-2.3717 z m -12.1717,9.2452 v 0 59.8028 h -10.1435 v -53.7112 c 0.074,-0.0408 0.1499,-0.0779 0.2239,-0.1193 2.2456,-1.1951 4.4266,-2.5144 6.6118,-3.8342 l 3.2205,-2.0786 c 0.0295,-0.0193 0.0581,-0.04 0.0873,-0.0595 z m -12.172,7.1725 v 0 52.6303 H 478.107 v -47.7355 l 2.2,-0.9728 3.4327,-1.6243 c 1.5089,-0.7495 3.0144,-1.5137 4.5105,-2.2977 z m -12.172,5.7722 v 0 46.8581 h -10.1435 v -42.9863 c 1.2955,-0.447 2.5869,-0.9051 3.8739,-1.381 2.1118,-0.7682 4.1975,-1.6118 6.2696,-2.4908 z m -12.1719,4.5524 v 0 42.3057 h -10.143 v -39.276 c 0.5664,-0.146 1.1336,-0.2872 1.6994,-0.436 2.8315,-0.7943 5.6455,-1.6639 8.4436,-2.5937 z m -12.172,3.5481 v 0 38.7576 h -3.1025 c -1.3496,-9.0471 -2.056,-18.3045 -2.056,-27.7274 0,-3.3231 0.0904,-6.6249 0.2625,-9.9051 1.6367,-0.349 3.2692,-0.722 4.896,-1.1251 z m 45.0193,51.9435 v 0 h 128.3125 v 25.4069 h -6.2725 c -1.2634,0 -2.5095,0.2112 -3.6879,0.6146 -1.1795,-0.4034 -2.4253,-0.6146 -3.6896,-0.6146 h -25.4228 c -0.782,0 -1.5587,0.0828 -2.3235,0.2446 -0.7657,-0.1618 -1.5438,-0.2446 -2.3293,-0.2446 h -27.9201 c -2.7008,0 -5.2492,0.9644 -7.2482,2.6144 -1.9947,-1.66 -4.5439,-2.6144 -7.2788,-2.6144 h -22.9269 c -0.8283,0 -1.6455,0.0904 -2.4449,0.2685 -0.799,-0.1781 -1.6123,-0.2685 -2.4341,-0.2685 h -14.3339 z m 144.0348,0 v 0 h 128.3123 v 25.4069 h -17.6508 c -3.8911,-0.8402 -8.3115,-1.2484 -13.4861,-1.2484 -2.2102,0 -4.2455,0.0984 -6.0542,0.294 -1.7306,0.1871 -3.5445,0.4652 -5.7053,0.883 -0.1024,0.0221 -0.2041,0.0459 -0.3048,0.0714 h -49.4509 c -0.4955,0 -0.991,0.0142 -1.4874,0.0301 l -0.1272,0.003 c -0.2382,-0.021 -0.4771,-0.0335 -0.7209,-0.0335 h -33.3247 z m 144.0341,0 v 0 h 29.9389 c -1.9573,8.7378 -4.5385,17.2386 -7.6739,25.4653 -1.3714,0.1247 -2.6992,0.4862 -3.9181,1.0724 -1.5182,-0.7319 -3.2026,-1.1308 -4.9385,-1.1308 h -13.4084 z m 105.8105,71.0682 v 0 c 0,1.9868 -1.0361,3.8308 -2.7349,4.8632 -0.9062,0.551 -1.9304,0.8291 -2.9574,0.8291 -0.011,0 -0.0221,0 -0.0326,0 3.9056,2.9905 5.7249,8.7148 5.7249,17.9838 v 15.3443 c 0,5.03 -0.6599,8.7976 -2.0169,11.52 -1.4771,2.9508 -3.7992,5.3044 -6.9057,7.001 -2.596,1.415 -5.6773,2.4936 -9.4224,3.2958 -3.5578,0.7639 -7.2045,1.1497 -10.8408,1.1497 -3.7001,0 -7.3196,-0.3653 -10.7575,-1.0848 -2.0083,-0.4215 -3.9274,-0.9779 -5.7628,-1.6367 -1.0177,0.9147 -2.3477,1.4732 -3.7945,1.4732 h -30.9849 c -2.302,0 -4.3779,-1.3865 -5.2594,-3.515 -0.1301,-0.3144 -0.2302,-0.6367 -0.3019,-0.9624 -0.0621,0.2844 -0.1469,0.5672 -0.254,0.845 -0.8507,2.1884 -2.9582,3.6324 -5.3073,3.6324 h -48.1022 c -3.462,0.8274 -7.5181,1.2483 -12.2783,1.2483 -2.4299,0 -4.2945,-0.0428 -5.5432,-0.1253 -1.4125,-0.0986 -3.363,-0.4226 -6.1528,-1.023 -0.1296,-0.0278 -0.2591,-0.0703 -0.389,-0.1 h -47.387 c -1.1387,0 -2.2212,-0.3399 -3.1312,-0.9389 -0.0739,0.0272 -3.4784,1.131 -3.4784,1.131 l -3.0852,1.8298 -4.197,2.5807 c -5.5462,3.8914 -11.3879,6.3898 -17.367,7.4284 -0.3263,0.0573 -0.6525,0.0842 -0.9757,0.0842 -1.9411,0 -3.7771,-0.9941 -4.8285,-2.6793 -1.2263,-1.9664 -1.1387,-4.479 0.2217,-6.3547 0.7809,-1.0769 1.4527,-2.1058 2.0588,-3.1039 -0.0961,0.005 -0.1894,0.0227 -0.2863,0.0227 h -25.31 c -1.2572,0 -2.4412,-0.413 -3.4013,-1.1277 -0.7591,0.597 -1.6702,1.0021 -2.6555,1.1529 -2.4126,0.3716 -4.4195,0.9229 -5.9647,1.6393 -1.1381,0.5255 -3.1694,1.6724 -6.4128,4.1675 l -3.6887,2.7654 c -2.6189,1.8706 -4.7894,3.1224 -6.7431,3.9053 -2.23,0.8878 -4.8489,1.315 -8.0206,1.315 -2.334,0 -4.4314,-1.4244 -5.2914,-3.5943 -0.8609,-2.1694 -0.3099,-4.644 1.3898,-6.2433 1.7753,-1.6708 3.0404,-3.0345 3.9705,-4.1502 -0.4266,0.1017 -0.8643,0.1701 -1.3159,0.1701 h -36.3605 l -4.2985,1.2611 c -0.3166,0.1604 -1.8391,1.0576 -5.565,4.949 -4.6972,4.8983 -11.5976,7.3806 -20.5126,7.3806 -2.4199,0 -4.5751,-1.5296 -5.3739,-3.8149 -0.7982,-2.2839 -0.0652,-4.8237 1.8281,-6.3309 1.6732,-1.3317 2.9432,-2.8103 3.9001,-4.4453 -0.9198,0.6259 -2.016,1.0004 -3.1901,1.0004 h -45.3974 -0.2503 -32.2103 c -0.9528,0 -1.8638,-0.2367 -2.6674,-0.6639 -0.8028,0.4272 -1.7136,0.6639 -2.6666,0.6639 h -32.4604 c -2.48,0 -4.6743,-1.6059 -5.4255,-3.9691 -0.7506,-2.3635 0.1151,-4.9411 2.141,-6.3723 0.633,-0.4479 0.9315,-0.8084 1.0721,-1.0448 0.1508,-0.3147 0.2225,-0.5211 0.2543,-0.6276 0,0.002 0.002,-0.0584 0.007,-0.173 l -0.2018,-2.319 c -0.0144,-0.1652 -0.0215,-0.3288 -0.0215,-0.4938 0,-0.7435 -0.0267,-1.1276 -0.042,-1.2849 -0.0388,-0.1494 -0.0723,-0.3002 -0.0986,-0.453 0,0 -11.3704,-64.5868 -11.3791,-64.6489 -0.3606,-2.5237 -0.9281,-4.5485 -1.6881,-6.0146 -0.0646,-0.1241 -0.1241,-0.2491 -0.1788,-0.3778 -0.4584,-1.069 -1.1061,-1.8459 -2.0387,-2.4443 -2.1274,-1.3629 -3.1017,-3.9663 -2.391,-6.393 0.7106,-2.4253 2.9349,-4.0915 5.4629,-4.0915 h 25.6504 c 2.3715,0 4.4941,1.4706 5.3289,3.6895 0.0969,0.2588 0.1746,0.5228 0.2327,0.7881 0.0476,-0.2177 0.1088,-0.4354 0.1825,-0.6497 0.7943,-2.2904 2.9535,-3.8279 5.3788,-3.8279 h 23.5703 3.1014 c 1.5613,0 3.0073,0.6412 4.0541,1.705 0.5959,0.6055 1.0653,1.3448 1.3462,2.1881 0.0388,0.1156 0.0737,0.2318 0.104,0.3492 0.0443,-0.1684 0.0967,-0.3351 0.1571,-0.5 0.6349,-1.7419 2.0642,-3.0212 3.7871,-3.5133 0.5003,-0.1431 1.0221,-0.229 1.5607,-0.229 h 5.6463 20.0237 0.2075 c 0.095,0 0.1854,0.0192 0.2795,0.0238 0.0964,-0.005 0.1896,-0.0238 0.2869,-0.0238 h 14.9482 14.3339 c 0.8663,0 1.6881,0.2103 2.4336,0.5643 0.7486,-0.3574 1.5772,-0.5643 2.4454,-0.5643 h 22.9269 c 2.3395,0 4.4405,1.4312 5.2977,3.6088 l 9.0984,23.1329 v -6.7487 c 0,-5.1015 -0.3932,-6.6007 -0.4717,-6.8499 0,0.003 0,0.003 0,0.003 -0.0122,0 -0.5378,-0.9944 -3.0416,-3.0813 -1.8408,-1.5341 -2.5237,-4.0563 -1.7082,-6.3102 0.8156,-2.2538 2.9557,-3.7547 5.3524,-3.7547 h 27.9201 c 0.8229,0 1.6101,0.1885 2.3296,0.5122 0.7171,-0.3223 1.5015,-0.5122 2.3232,-0.5122 h 25.4228 c 1.3763,0 2.6771,0.4955 3.6888,1.3563 1.0094,-0.8574 2.3093,-1.3563 3.6887,-1.3563 h 6.2725 15.7223 33.3247 c 0.1789,0 0.3526,0.0255 0.5281,0.0419 0.6026,-0.0164 1.2053,-0.0419 1.8074,-0.0419 h 50.1664 c 0.2758,-0.0661 0.5414,-0.1452 0.8212,-0.2064 1.8796,-0.3606 3.5402,-0.6128 5.0888,-0.7815 1.6049,-0.1729 3.4327,-0.2605 5.4388,-0.2605 5.0094,0 9.2619,0.4153 12.8571,1.2484 h 18.2798 15.7218 13.4084 c 2.0582,0 3.9325,1.1086 4.9371,2.859 0.0133,-0.0238 0.0269,-0.0476 0.0414,-0.0714 0.263,-0.4437 0.5825,-0.8414 0.9442,-1.1903 1.0474,-1.01 2.4574,-1.5973 3.9507,-1.5973 h 4.0427 5.9806 6.4757 13.1239 c 1.8549,0 3.5186,0.9079 4.5654,2.3258 0.0111,-0.006 0.0207,-0.0122 0.0318,-0.0179 4.6638,-2.4698 10.8439,-3.6691 18.8957,-3.6691 3.4847,0 7.0699,0.386 10.6563,1.1455 3.7477,0.7939 7.0776,1.9802 9.8997,3.5288 3.5759,1.9619 6.0568,4.7744 7.3735,8.3625 0.0326,0.0887 0.0629,0.178 0.0907,0.2681 0.9244,2.9654 1.3927,6.2468 1.3927,9.7521 z"
       style="fill:#222222;fill-rule:evenodd;stroke:#222222;stroke-width:0.5669;stroke-linecap:butt;stroke-linejoin:miter;stroke-dasharray:none"
       id="path10" />
    <path
       d="m 463.5208,527.3794 h -7.4186 -0.7407 c 0.6029,0.5074 1.0993,1.0789 1.51,1.7017 0.4301,0.6511 0.758,1.3629 0.9771,2.1401 0.2282,0.809 0.3501,1.6815 0.3501,2.6277 l -0.3404,3.8594 -0.7237,4.5232 -1.5602,9.7492 -5.4337,33.9633 -8.1717,-48.2357 -0.1134,-1.3612 -0.1137,-1.9298 c 0,-1.3626 0.2075,-2.7048 0.6242,-4.0295 0.3118,-0.9952 0.7648,-1.8096 1.3569,-2.442 0.1948,-0.2084 0.4043,-0.3974 0.6293,-0.5664 h -0.8611 -25.8106 c 1.0584,0.8343 1.7764,1.7983 2.156,2.8956 0.3779,1.0976 0.5678,2.4015 0.5678,3.9152 l -0.3407,3.5181 -7.7174,48.2357 -8.1725,-48.2357 -0.3399,-3.5181 c 0,-2.9511 0.9079,-5.2208 2.7238,-6.8108 h -25.6504 c 1.891,1.2121 3.2919,2.8766 4.1992,4.9952 1.0585,2.0427 1.8165,4.6523 2.2697,7.8305 l 11.3499,64.4663 c 0.1509,0.4541 0.2271,1.3624 0.2271,2.7238 l 0.2271,2.611 c 0,0.7577 -0.0763,1.4009 -0.2271,1.9298 -0.1525,0.5304 -0.3796,1.0973 -0.6806,1.7025 -0.6069,1.1342 -1.552,2.1555 -2.8375,3.0637 h 32.4604 c -1.5891,-1.1353 -2.6113,-2.1931 -3.0645,-3.1779 -0.4544,-0.9816 -0.6815,-2.23 -0.6815,-3.7454 v -2.2694 l 0.4544,-3.1782 6.2419,-32.1194 5.6747,32.4595 c 0.1511,0.4541 0.227,1.3624 0.227,2.7238 l 0.2271,2.611 c 0,0.7577 -0.076,1.4009 -0.2271,1.9298 -0.1522,0.5304 -0.3795,1.0973 -0.6806,1.7025 -0.6063,1.1342 -1.5516,2.1555 -2.8374,3.0637 h 32.4606 c -1.4383,-1.0593 -2.423,-2.0996 -2.9514,-3.1206 -0.5304,-1.0214 -0.7949,-2.2507 -0.7949,-3.6899 v -2.1552 c 0.1509,-0.3019 0.2645,-0.756 0.3411,-1.3626 0.0745,-0.6052 0.1508,-1.2849 0.227,-2.0426 l 6.1506,-32.4797 1.5613,-8.2446 1.4607,-7.7139 1.8298,-9.6602 1.1415,-6.0278 c 0.6049,-2.9509 1.4366,-5.618 2.4965,-8.0017 1.0145,-2.2813 2.3094,-3.8438 3.8792,-4.7052 0.0697,-0.038 0.1366,-0.0831 0.2075,-0.1188 h -0.2075 z"
       style="fill:#222222;fill-rule:evenodd;stroke:#222222;stroke-width:0.5669;stroke-linecap:butt;stroke-linejoin:miter;stroke-dasharray:none"
       id="path12" />
    <path
       d="m 505.2989,585.4208 v -47.0313 c 0,-3.329 0.3209,-5.6367 0.9649,-6.9234 0.6418,-1.2863 2.2507,-2.6475 4.8237,-4.0867 h -14.3339 -14.9482 c 2.7238,1.59 4.3693,2.9909 4.9371,4.1995 0.5669,1.2121 0.8512,3.4816 0.8512,6.8106 v 38.3626 8.2749 8.805 11.8605 c 0,3.1782 -0.3033,5.4479 -0.9085,6.8105 -0.6806,1.2118 -2.3085,2.6113 -4.8798,4.1992 h 29.2821 c -2.8766,-1.512 -4.5592,-2.8556 -5.0507,-4.0291 -0.4933,-1.1725 -0.7379,-3.4991 -0.7379,-6.9806 v -11.1566 z"
       style="fill:#222222;fill-rule:evenodd;stroke:#222222;stroke-width:0.5669;stroke-linecap:butt;stroke-linejoin:miter;stroke-dasharray:none"
       id="path14" />
    <path
       d="m 577.2547,532.0333 c 0.5289,-1.2849 1.891,-2.8366 4.0858,-4.6539 h -27.9201 c 2.7238,2.27 4.3305,4.1823 4.8234,5.7322 0.4919,1.552 0.7379,4.409 0.7379,8.5686 v 36.7736 l -20.0883,-51.0744 h -22.9269 c 3.0257,2.1223 4.8983,3.8806 5.6177,5.2812 0.7189,1.4009 1.0786,3.6182 1.0786,6.647 v 70.0855 c 0,2.2728 -0.1525,4.2789 -0.4544,6.0196 -0.3024,1.7422 -0.7566,3.521 -1.362,5.3399 -1.2872,3.71 -3.5941,6.8897 -6.9231,9.5406 7.3386,0 12.8064,-1.8757 16.4004,-5.6242 3.5927,-3.7528 6.2229,-5.8938 7.8883,-6.4213 l 4.6536,-1.3643 c -1.8161,-2.2743 -2.8763,-3.8452 -3.1782,-4.7172 -0.3033,-0.8705 -0.4541,-2.8222 -0.4541,-5.8527 v -38.7552 l 16.0033,38.5883 c 0.3778,0.6069 0.6806,1.4757 0.9076,2.6112 l 0.6815,2.7239 0.227,1.4754 c 0,1.2866 -0.6066,2.5367 -1.8161,3.7451 h 2.6104 19.2943 3.5186 c -1.8924,-1.8153 -3.0645,-3.4225 -3.5186,-4.8234 -0.4535,-1.3992 -0.6806,-3.3863 -0.6806,-5.9593 v -68.2112 c 0,-2.497 0.2645,-4.3869 0.794,-5.675 z"
       style="fill:#222222;fill-rule:evenodd;stroke:#222222;stroke-width:0.5669;stroke-linecap:butt;stroke-linejoin:miter;stroke-dasharray:none"
       id="path16" />
    <path
       d="m 638.9964,594.6317 v -57.4903 c 0,-2.1938 0.2645,-3.9725 0.7943,-5.3354 0.2534,-0.4564 0.5907,-0.9269 0.9977,-1.4094 0.8065,-0.9555 1.9069,-1.9604 3.3152,-3.0172 h -3.3152 -15.7223 -6.2725 c 1.0584,1.1359 1.72,2.1396 1.9862,3.0084 0.2645,0.8705 0.3977,1.9868 0.3977,3.3483 v 31.8923 H 608.9194 V 534.076 c 0,-1.436 0.1508,-2.5526 0.4541,-3.3483 0.3019,-0.7943 0.9825,-1.9091 2.0426,-3.3483 h -25.4228 c 2.3443,1.7425 3.7452,3.2165 4.1996,4.4252 0.6043,1.2118 0.9076,2.9891 0.9076,5.3334 v 73.413 c 0,4.614 -0.5678,8.1873 -1.7028,10.7224 -1.1347,2.5333 -3.6314,5.6146 -7.4908,9.2469 2.4214,0 4.3875,-0.3033 5.902,-0.9054 1.5126,-0.6066 3.3287,-1.6659 5.4476,-3.1779 l 3.6324,-2.7224 c 2.9511,-2.2697 5.4479,-3.877 7.4902,-4.8203 2.0435,-0.9468 4.5403,-1.6456 7.4911,-2.0997 -1.2872,-1.8139 -2.0996,-3.2879 -2.4403,-4.4234 -0.3399,-1.1339 -0.5105,-2.6842 -0.5105,-4.6506 v -2.9494 -28.1327 h 12.2581 v 28.26 4.6533 l -0.4541,4.5394 c -0.4544,1.1356 -1.0976,2.0061 -1.9298,2.611 h 25.31 c -2.2697,-1.739 -3.6888,-3.2352 -4.256,-4.4835 -0.5678,-1.2484 -0.8512,-3.0067 -0.8512,-5.2779 v -4.5394 z"
       style="fill:#222222;fill-rule:evenodd;stroke:#222222;stroke-width:0.5669;stroke-linecap:butt;stroke-linejoin:miter;stroke-dasharray:none"
       id="path18" />
    <path
       d="m 702.3827,531.4092 c 0.6415,-1.0959 1.8726,-2.4398 3.6888,-4.0298 h -27.6931 -1.9298 c -3.7086,0 -7.3775,0.3416 -11.0092,1.0216 -3.6323,0.6812 -6.338,1.9123 -8.115,3.6896 -1.7791,1.7773 -2.8939,4.104 -3.3483,6.9755 -0.4541,2.8746 -0.6815,5.7132 -0.6815,8.5116 v 1.7028 62.6317 c 0,3.102 -0.5105,5.9369 -1.5315,8.5116 -1.0214,2.5679 -2.6303,5.3683 -4.8238,8.3937 5.2206,-0.9068 10.2887,-3.0986 15.2085,-6.5769 l 4.4266,-2.7207 3.6314,-2.1535 3.8597,-1.2487 c -1.2884,-0.983 -2.0435,-1.8516 -2.2706,-2.6079 -0.227,-0.7543 -0.3407,-2.0803 -0.3407,-3.9704 v -6.5756 -8.8449 l 12.0311,-3.407 v 3.0637 12.4855 c 0,2.4967 -0.2659,4.4456 -0.7948,5.8447 -0.5295,1.4009 -1.702,2.9336 -3.5181,4.5964 h 26.8991 c -2.1195,-1.739 -3.4246,-3.1955 -3.9158,-4.369 -0.4932,-1.1724 -0.7379,-2.8559 -0.7379,-5.0508 v -71.3897 c 0,-1.8901 0.3209,-3.3863 0.9649,-4.4835 z m -18.8974,7.884 v 0 40.9217 l -12.0311,3.4067 v -40.926 c 0,-2.2666 0.4351,-3.8361 1.3056,-4.7047 0.8689,-0.8688 1.986,-1.3039 3.348,-1.3039 h 7.3775 z"
       style="fill:#222222;fill-rule:evenodd;stroke:#222222;stroke-width:0.5669;stroke-linecap:butt;stroke-linejoin:miter;stroke-dasharray:none"
       id="path20" />
    <path
       d="m 754.4206,528.9124 c -3.7083,-1.8536 -9.1936,-2.7811 -16.4568,-2.7811 -1.8162,0 -3.4243,0.0763 -4.8234,0.2271 -1.4018,0.1525 -2.8948,0.3795 -4.4839,0.6831 -3.1034,0.6812 -5.8836,1.6677 -8.3415,2.954 -2.4602,1.2881 -4.0484,2.9177 -4.767,4.8855 -0.7203,1.9712 -1.0786,4.6982 -1.0786,8.1828 v 3.1813 51.4792 3.0668 c 0,3.2573 0.3781,6.0227 1.1356,8.297 0.9079,1.9698 2.6104,3.6371 5.1071,5 2.4968,1.3643 4.9746,2.3111 7.4339,2.8412 2.4579,0.5292 4.2367,0.8325 5.3342,0.9088 1.0959,0.0728 2.8185,0.1128 5.1642,0.1128 7.1878,0 12.5793,-1.0055 16.1733,-3.0161 3.5927,-2.0109 5.7323,-4.079 6.4129,-6.2039 0.6811,-2.1254 1.0213,-4.8158 1.0213,-8.0796 v -2.7334 -4.9057 -9.2256 -6.3544 l -17.8189,4.5553 v 17.4296 c 0,3.0388 -0.3597,5.3351 -1.0786,6.8916 -0.7194,1.5565 -2.3266,2.3349 -4.8237,2.3349 -2.8,0 -4.5025,-0.7373 -5.1069,-2.2124 -0.6066,-1.4757 -0.9076,-3.8027 -0.9076,-6.9806 v -54.819 -1.7027 c 0,-2.3443 0.3773,-4.1789 1.1347,-5.5049 0.7554,-1.3215 2.3833,-1.9854 4.8798,-1.9854 2.6479,0 4.2939,0.7526 4.9374,2.2618 0.6423,1.5071 0.9649,3.8038 0.9649,6.893 v 17.6298 c 2.1932,-0.9817 5.0681,-1.8519 8.6258,-2.6099 3.102,-0.832 6.1657,-1.2481 9.1931,-1.2481 v -12.3709 -3.0654 c 0,-3.0257 -0.3799,-5.6543 -1.135,-7.8874 -0.7569,-2.2315 -2.99,-4.2741 -6.6963,-6.1291 z"
       style="fill:#222222;fill-rule:evenodd;stroke:#222222;stroke-width:0.5669;stroke-linecap:butt;stroke-linejoin:miter;stroke-dasharray:none"
       id="path22" />
    <path
       d="m 834.6635,612.1634 -4.4266,-7.3777 -20.7697,-36.5463 14.754,-26.8988 c 2.4205,-4.3137 4.4067,-7.338 5.9584,-9.0802 1.5503,-1.7393 4.0669,-3.3656 7.5476,-4.881 h -15.3638 -6.5656 -6.0452 -1.6483 l 0.9014,1.6518 0.4615,0.8453 c 0.3007,0.6814 0.4532,1.4388 0.4532,2.2711 0,1.2101 -0.4532,2.6096 -1.3617,4.1995 l -2.4968,4.7665 -12.4846,21.7907 v -6.1154 -12.6513 -2.9115 -1.9281 c 0,-3.1017 0.377,-5.5225 1.1347,-7.2647 0.9076,-1.7393 2.0798,-3.291 3.5189,-4.6539 h -13.4084 -14.7391 c 2.6476,1.7425 4.2733,3.1609 4.8802,4.2568 0.6049,1.0973 0.9076,3.0081 0.9076,5.7322 v 42.0645 8.1297 7.0691 11.9693 c 0,2.8 -0.3399,4.7871 -1.0213,5.9592 -0.6806,1.1736 -2.1952,2.5541 -4.54,4.142 h 28.715 c -2.6493,-2.4202 -4.2191,-4.4073 -4.7098,-5.959 -0.4932,-1.5488 -0.7378,-3.9515 -0.7378,-7.2059 v -26.9739 -1.5149 l 0.4935,0.8884 14.8283,26.6916 2.497,4.6539 c 0.9822,1.7408 1.4752,3.1782 1.4752,4.3121 0,1.5896 -0.9074,3.2924 -2.7238,5.1077 h 28.1474 2.8375 c -3.3307,-1.5879 -5.4867,-3.1016 -6.4689,-4.5388 z"
       style="fill:#222222;fill-rule:evenodd;stroke:#222222;stroke-width:0.5669;stroke-linecap:butt;stroke-linejoin:miter;stroke-dasharray:none"
       id="path24" />
    <path
       d="m 879.039,529.991 c -2.346,-1.2867 -5.1265,-2.27 -8.3418,-2.9512 -3.217,-0.6814 -6.3754,-1.0213 -9.4771,-1.0213 -7.037,0 -12.4475,1.0038 -16.2297,3.0064 -3.7851,2.0064 -6.0356,4.0122 -6.7536,6.0166 -0.7203,2.006 -1.0783,4.7488 -1.0783,8.2287 v 3.0639 8.286 c 0,3.8579 1.0395,6.696 3.1218,8.5113 2.0798,1.8156 6.1855,4.1822 12.3137,7.0934 6.1291,2.9146 10.0826,5.4876 11.8605,7.719 1.7773,2.2317 2.6674,6.1101 2.6674,11.6326 v 9.8742 c 0,3.0271 -0.3598,5.3178 -1.0783,6.866 -0.7195,1.5517 -2.327,2.327 -4.8235,2.327 -2.8766,0 -4.5966,-0.7373 -5.1644,-2.2124 -0.5669,-1.4757 -0.8513,-3.8027 -0.8513,-6.9806 v -18.3861 l -18.0459,-7.7187 v 24.4023 3.0654 c 0,3.2541 0.3779,6.0145 1.1347,8.2842 0.9085,2.1186 2.6286,3.8024 5.1645,5.0508 2.5341,1.2484 5.3348,2.1949 8.3987,2.8383 3.0646,0.6415 6.2601,0.9641 9.5908,0.9641 3.2527,0 6.4689,-0.3416 9.6471,-1.023 3.178,-0.6815 5.806,-1.5914 7.8883,-2.727 2.0798,-1.1358 3.5923,-2.6523 4.54,-4.5456 0.945,-1.895 1.4181,-4.8869 1.4181,-8.9787 v -2.7284 -12.6159 c 0,-7.274 -1.1911,-11.7816 -3.5753,-13.5255 -2.3828,-1.7407 -5.8445,-3.9007 -10.3847,-6.4786 -2.7238,-1.6662 -4.8626,-2.916 -6.4126,-3.7499 -1.5517,-0.834 -3.2346,-1.7042 -5.0507,-2.6144 -2.8764,-1.6659 -4.313,-3.8642 -4.313,-6.5911 v -7.8415 -1.7039 c 0,-2.3491 0.3782,-4.1868 1.1356,-5.5134 0.7552,-1.326 2.3831,-1.9899 4.8801,-1.9899 2.6476,0 4.294,0.7608 4.9371,2.2807 0.6424,1.5203 0.9647,3.839 0.9647,6.952 v 4.9014 2.9653 l 17.8188,9.2327 v -15.5494 -2.7238 c 0,-2.9509 -0.3795,-5.635 -1.1347,-8.0589 -0.8331,-2.2694 -2.4222,-4.0468 -4.767,-5.3331 z"
       style="fill:#222222;fill-rule:evenodd;stroke:#222222;stroke-width:0.5669;stroke-linecap:butt;stroke-linejoin:miter;stroke-dasharray:none"
       id="path26" />
  </g>
</svg>
